<?xml version="1.0" standalone="no"?><!DOCTYPE svg PUBLIC "-//W3C//DTD SVG 1.1//EN" "http://www.w3.org/Graphics/SVG/1.1/DTD/svg11.dtd"><svg t="1736754955985" class="icon" viewBox="0 0 1024 1024" version="1.1" xmlns="http://www.w3.org/2000/svg" p-id="4036" xmlns:xlink="http://www.w3.org/1999/xlink" width="64" height="64"><path d="M883.410824 463.570824h-59.632942v-159.021177a79.872 79.872 0 0 0-79.570823-79.932235h-159.021177v-59.632941a99.388235 99.388235 0 1 0-198.836706 0v59.632941h-159.021176A79.510588 79.510588 0 0 0 148.178824 304.549647v151.250824h59.151058a107.399529 107.399529 0 1 1 0 214.859294h-59.632941v151.250823a79.872 79.872 0 0 0 79.570824 79.390118h151.070117v-59.693177a107.459765 107.459765 0 0 1 214.799059 0v59.632942h151.009883a79.811765 79.811765 0 0 0 79.510588-79.510589V662.588235h59.693176a99.508706 99.508706 0 0 0 0-199.017411z" fill="#1296db" p-id="4037"></path></svg>