<?xml version="1.0" standalone="no"?><!DOCTYPE svg PUBLIC "-//W3C//DTD SVG 1.1//EN" "http://www.w3.org/Graphics/SVG/1.1/DTD/svg11.dtd"><svg t="1737383786769" class="icon" viewBox="0 0 1024 1024" version="1.1" xmlns="http://www.w3.org/2000/svg" p-id="1754" xmlns:xlink="http://www.w3.org/1999/xlink" width="200" height="200"><path d="M878.08 626.176h-59.904c-4.608 0-8.192 3.584-8.192 8.192V788.48H214.016v-154.112c0-4.608-3.584-8.192-8.192-8.192H145.92c-4.608 0-8.192 3.584-8.192 8.192v198.144c0 17.92 14.336 31.744 31.744 31.744h684.032c17.92 0 31.744-14.336 31.744-31.744v-198.144c0.512-4.608-3.072-8.192-7.168-8.192z" p-id="1755" fill="#666666"></path><path d="M385.536 660.992c3.072 4.096 9.216 4.096 12.8 0l112.128-141.824c4.096-5.12 0.512-12.8-6.144-12.8H430.08V167.936c0-4.608-3.584-8.192-8.192-8.192H361.984c-4.608 0-8.192 3.584-8.192 8.192v338.432H280.064c-6.656 0-10.24 7.68-6.144 12.8l111.616 141.824zM520.192 317.952H593.92v338.432c0 4.608 3.584 8.192 8.192 8.192h59.904c4.608 0 8.192-3.584 8.192-8.192V317.952h74.24c6.656 0 10.24-7.68 6.144-12.8l-112.128-141.824c-3.072-4.096-9.216-4.096-12.8 0l-112.128 141.824c-4.096 4.608 0 12.8 6.656 12.8z" p-id="1756" fill="#666666"></path></svg>