<?xml version="1.0" standalone="no"?><!DOCTYPE svg PUBLIC "-//W3C//DTD SVG 1.1//EN" "http://www.w3.org/Graphics/SVG/1.1/DTD/svg11.dtd"><svg t="1735269771830" class="icon" viewBox="0 0 1024 1024" version="1.1" xmlns="http://www.w3.org/2000/svg" p-id="6672" xmlns:xlink="http://www.w3.org/1999/xlink" width="256" height="256"><path d="M925.5 497.7L617.4 184.8l-0.2-0.2C547 115.4 496.2 65.4 408.3 65.4H267.7c-85.4 0-136.8 15.7-166.8 50.9-32.3 38-36.8 98.4-36.8 158.1v149.5c0 42 4.4 67.3 15.6 90.2 11.5 23.3 30.3 43.9 61 73.8l347.4 339.7c20.3 19.8 49.8 29.7 79.2 29.7 29.3 0 58.7-9.8 79-29.5l279.5-272.2c20.5-19.8 32.2-48.4 32.2-78.6 0.1-30.3-11.8-59.2-32.5-79.3z m-54 101.9L592 871.7c-5.8 5.7-14.9 8.9-24.8 8.9s-18.9-3.3-24.7-8.9l-347.4-340c-51.9-50.2-53.1-55.4-53.1-108.1V274.2c0-61 2.6-91.1 18.3-108.5 16.9-18.7 52.1-22.4 107.2-22.4h140.2c54.2 0 86.6 29.8 154.8 97.2l28.3 27.6L870.4 553l0.1 0.1c6.1 5.8 9.5 14.3 9.5 23.9 0 9.1-3.1 17.4-8.5 22.6z" p-id="6673" fill="#666666"></path><path d="M332.6 219.3c-62.6 0-113.5 50.9-113.5 113.5S270 446.3 332.6 446.3s113.5-50.9 113.5-113.5-50.9-113.5-113.5-113.5z m0 147c-18.5 0-33.5-15-33.5-33.5s15-33.5 33.5-33.5 33.5 15 33.5 33.5-15 33.5-33.5 33.5z" p-id="6674" fill="#666666"></path></svg>