<?xml version="1.0" standalone="no"?><!DOCTYPE svg PUBLIC "-//W3C//DTD SVG 1.1//EN" "http://www.w3.org/Graphics/SVG/1.1/DTD/svg11.dtd"><svg t="1735531647711" class="icon" viewBox="0 0 1075 1024" version="1.1" xmlns="http://www.w3.org/2000/svg" p-id="8757" xmlns:xlink="http://www.w3.org/1999/xlink" width="67.1875" height="64"><path d="M118.609995 655.309014a45.533998 45.533998 0 0 0-45.533998 45.532999v273.030989a45.533998 45.533998 0 0 0 91.009997 0v-273.029989a45.533998 45.533998 0 0 0-45.533999-45.533999z m260.79699-291.153988a45.533998 45.533998 0 0 0-45.475998 45.476998V973.930002a45.533998 45.533998 0 0 0 91.009996 0V409.575024a45.533998 45.533998 0 0 0-45.533998-45.476998z m521.87998 0a45.533998 45.533998 0 0 0-45.532998 45.476998V973.930002a45.533998 45.533998 0 1 0 91.009996 0V409.575024a45.533998 45.533998 0 0 0-45.476998-45.476998zM640.375975 582.590017a45.533998 45.533998 0 0 0-45.533998 45.476998V973.930002a45.533998 45.533998 0 1 0 91.009996 0V628.068015a45.533998 45.533998 0 0 0-45.475998-45.476998zM974.569962 0.00004H810.332968a45.533998 45.533998 0 0 0 0 91.009996h54.028998l-218.889991 216.340992-221.776992-221.889991a44.909998 44.909998 0 0 0-63.882997 0.282L13.553999 432.115023a45.306998 45.306998 0 0 0 64.165998 64.109998L391.922985 182.020033l218.549991 218.492991a45.023998 45.023998 0 0 0 26.164999 15.347l0.566 0.114 1.303 0.226a44.853998 44.853998 0 0 0 37.773999-11.893l0.68-0.68L929.037964 154.610034v54.707998a45.533998 45.533998 0 0 0 91.066996 0V45.534038A45.533998 45.533998 0 0 0 974.514962 0.00004z" p-id="8758" fill="#515151"></path><path d="M118.609995 655.309014a45.533998 45.533998 0 0 0-45.533998 45.532999v273.030989a45.533998 45.533998 0 0 0 91.009997 0v-273.029989a45.533998 45.533998 0 0 0-45.533999-45.533999z m260.79699-291.153988a45.533998 45.533998 0 0 0-45.475998 45.476998V973.930002a45.533998 45.533998 0 0 0 91.009996 0V409.575024a45.533998 45.533998 0 0 0-45.533998-45.476998z m521.87998 0a45.533998 45.533998 0 0 0-45.532998 45.476998V973.930002a45.533998 45.533998 0 1 0 91.009996 0V409.575024a45.533998 45.533998 0 0 0-45.476998-45.476998zM640.375975 582.590017a45.533998 45.533998 0 0 0-45.533998 45.476998V973.930002a45.533998 45.533998 0 1 0 91.009996 0V628.068015a45.533998 45.533998 0 0 0-45.475998-45.476998zM974.569962 0.00004H810.332968a45.533998 45.533998 0 0 0 0 91.009996h54.028998l-218.889991 216.340992-221.776992-221.889991a44.909998 44.909998 0 0 0-63.882997 0.282L13.553999 432.115023a45.306998 45.306998 0 0 0 64.165998 64.109998L391.922985 182.020033l218.549991 218.492991a45.023998 45.023998 0 0 0 26.164999 15.347l0.566 0.114 1.303 0.226a44.853998 44.853998 0 0 0 37.773999-11.893l0.68-0.68L929.037964 154.610034v54.707998a45.533998 45.533998 0 0 0 91.066996 0V45.534038A45.533998 45.533998 0 0 0 974.514962 0.00004z" p-id="8759" fill="#515151"></path></svg>