<svg width="65" height="64" viewBox="0 0 65 64" fill="none" xmlns="http://www.w3.org/2000/svg">
<path d="M63.36 56.8L57.12 63.04C56.64 63.52 56 64 55.2 64C54.56 64 53.92 63.84 53.6 63.36C53.12 62.88 52.96 62.4 52.96 61.76V39.36C52.96 38.08 54.08 36.96 55.36 36.96C56.64 36.96 57.76 38.08 57.76 39.36V56L60.32 53.6C61.28 52.64 62.72 52.64 63.52 53.6C64.32 54.4 64.32 55.84 63.36 56.8ZM55.68 30.88C55.04 32 53.44 32.32 52.32 31.68C51.2 31.04 50.88 29.6 51.52 28.48C51.84 28 52.16 27.68 52.64 27.52L53.92 26.24C54.4 25.76 54.56 24.96 54.4 24.32V24.16C54.24 23.52 53.76 23.04 52.96 22.88H52.8L37.92 20.16L31.2 5.92C31.04 5.28 30.4 4.8 29.6 4.8C28.8 4.8 28.16 5.28 27.84 5.92L21.28 20L6.4 22.88C5.6 22.88 4.96 23.52 4.8 24.32C4.64 25.12 4.8 25.76 5.28 26.4L16.16 36.8L13.28 52.16C13.28 52.96 13.44 53.6 14.08 54.08C14.56 54.56 15.36 54.56 16 54.24L26.56 48.8C27.04 48.32 27.52 48.16 28.16 48.16C29.44 48.16 30.56 49.28 30.56 50.56C30.56 51.68 29.76 52.64 28.64 52.8V52.96L17.6 58.56C15.52 59.68 13.12 59.52 11.2 58.08C9.28 56.64 8.48 54.08 8.8 51.84L11.2 38.56L1.92 29.44C0.320003 27.68 -0.319997 25.28 0.320003 23.04V22.88C0.960003 20.64 2.88 18.88 5.28 18.56L18.24 16.16L24.48 3.68C25.44 1.6 27.52 0.160004 29.92 0.160004C32.32 0.160004 34.4 1.6 35.36 3.68L41.28 16L54.24 18.4C56.64 18.72 58.4 20.48 59.04 22.88C59.84 25.12 59.2 27.68 57.44 29.44L55.68 30.88ZM43.68 37.92C44.16 37.28 44.8 36.8 45.6 36.8C46.24 36.8 46.88 36.96 47.2 37.44C47.68 37.92 47.84 38.4 47.84 39.04V61.44C47.84 62.72 46.72 63.84 45.44 63.84C44.16 63.84 43.2 62.88 43.2 61.6V44.8L40.8 47.2C39.84 48.16 38.4 48.16 37.6 47.2C36.64 46.4 36.64 44.96 37.6 44L43.68 37.92Z" fill="#515151"/>
<path d="M45.6 36.8C44.8 36.8 44.16 37.28 43.68 37.92L37.6 44C36.64 44.96 36.64 46.4 37.6 47.2C38.4 48.16 39.84 48.16 40.8 47.2L43.2 44.8V61.6C43.2 62.88 44.16 63.84 45.44 63.84C46.72 63.84 47.84 62.72 47.84 61.44V39.04C47.84 38.4 47.68 37.92 47.2 37.44C46.88 36.96 46.24 36.8 45.6 36.8Z" fill="#C6C6C6"/>
</svg>
