<?xml version="1.0" standalone="no"?><!DOCTYPE svg PUBLIC "-//W3C//DTD SVG 1.1//EN" "http://www.w3.org/Graphics/SVG/1.1/DTD/svg11.dtd"><svg t="1735531699002" class="icon" viewBox="0 0 1024 1024" version="1.1" xmlns="http://www.w3.org/2000/svg" p-id="10705" xmlns:xlink="http://www.w3.org/1999/xlink" width="64" height="64"><path d="M512 42.6496a469.3504 469.3504 0 1 0 0 938.7008A469.3504 469.3504 0 0 0 512 42.6496zM128 512a384 384 0 1 1 768 0 384 384 0 0 1-768 0z m426.8544-256A42.6496 42.6496 0 1 0 469.504 256v256.2048c0 11.264 4.5056 22.1696 12.4928 30.1568l180.8896 180.8896a42.6496 42.6496 0 1 0 60.3136-60.3648L554.8032 494.592V256z" p-id="10706" fill="#515151"></path></svg>